# xmcd
#
# Track frame offsets: 
#        150
#        14995
#        26970
#        40977
#        57470
#        66529
#        80108
#        101615
#        122263
#        135585
#        154118
#        165929
#        183925
#        197283
#
# Disc length: 2844 seconds
#
# Revision: 0
# Processed by: cddbd v1.5.2PL0 Copyright (c) Steve Scherf et al.
# Submitted via: ExactAudioCopy v1.0b3
#
DISCID=bf0b1a0e
DTITLE=Almeida Tesone Trio - Crazy Blues
DYEAR=2014
DGENRE=blues
TTITLE0=Little By Little
TTITLE1=I'll Be Your Baby Tonight
TTITLE2=Love In Vain
TTITLE3=Nobody Knows You
TTITLE4=Mama, Can I Scoop For You
TTITLE5=Phone Booth
TTITLE6=One Meatball
TTITLE7=Black Snake Blues
TTITLE8=San Francisco Bay Blues
TTITLE9=Crazy Blues
TTITLE10=Oh Death
TTITLE11=Will My Man Be Home Tonight
TTITLE12=Baby, What You Want Me To Do
TTITLE13=Terraplane Blues
EXTD=
EXTT0=
EXTT1=
EXTT2=
EXTT3=
EXTT4=
EXTT5=
EXTT6=
EXTT7=
EXTT8=
EXTT9=
EXTT10=
EXTT11=
EXTT12=
EXTT13=
PLAYORDER=
